                                  <svg width="176" height="938" viewBox="0 0 176 938" fill="none" xmlns="http://www.w3.org/2000/svg">
<path opacity="0.6" d="M76.7165 934.643L126.3 487.056C125.263 488.869 120.595 502.044 110.218 540.241C97.2476 587.988 78.7548 612.118 51.6416 716.09C28.6054 804.428 29.893 884.35 37.2246 933.842L76.7165 934.643Z" fill="#f0f0f0"/>
<path opacity="0.5" d="M155.705 932.813L164 273C164 273 107.924 530.218 91 566C73.5 603 71.5 592.5 30 715C0.707754 801.465 -0.883176 883.901 6.00001 933.458L155.705 932.813Z" fill="#f0f0f0"/>
<path d="M74.7451 934.696H169.378V532.566V130.436V0.974121C169.378 -1.85834 162.146 15.7697 133.217 108.942C104.289 202.114 106.315 284.89 110.906 314.381C128.411 426.847 143.373 434.145 94.7488 593.298C46.1244 752.45 61.1528 887.21 74.7451 934.696Z" fill="#f0f0f0"/>
</svg>
 